<svg xmlns="http://www.w3.org/2000/svg" width="111" height="28" viewBox="0 0 111 28" fill="none">
  <g clip-path="url(#clip0_19605_31224)">
    <mask id="mask0_19605_31224" style="mask-type:luminance" maskUnits="userSpaceOnUse" x="0" y="0" width="111" height="28">
      <path d="M0.199219 0H110.522V28H0.199219V0Z" fill="white"/>
    </mask>
    <g mask="url(#mask0_19605_31224)">
      <path d="M29.9598 17.4698L28.2003 18.2364L28.2389 18.2196C29.3477 17.3869 29.9654 16.9182 28.4982 15.7542L23.4895 12.9133L13.9023 7.50204L14.2775 0C14.2775 0 24.8299 5.54932 28.8899 8.25216C32.9496 10.9606 34.4059 15.0758 29.9598 17.4698Z" fill="url(#paint0_linear_19605_31224)"/>
      <path d="M19.8537 3.00073L19.4068 10.6187L9.38396 15.1418L4.3588 12.3505C2.886 11.1977 3.50928 10.7234 4.60716 9.88481L4.6346 9.86297L4.48032 9.92905L4.5464 9.90133L13.9956 5.68733L19.8537 3.00073Z" fill="url(#paint1_linear_19605_31224)"/>
      <path d="M19.0269 20.4927L18.944 22.3239L18.6962 28L12.9537 24.9716C9.78745 23.2563 6.09145 21.21 4.03401 19.8582C-0.0425136 17.1828 -1.53743 13.0679 2.89777 10.6462L4.48089 9.92912L4.63517 9.86304L4.60773 9.88488C3.50453 10.7291 2.88657 11.1981 4.35937 12.3508L9.38453 15.1419L13.4557 17.3978L19.0269 20.4927Z" fill="url(#paint2_linear_19605_31224)"/>
      <path d="M28.2383 18.2253L20.1183 21.8L19.1422 22.2357L18.9434 22.3239L12.9531 24.9716L13.4549 17.4035L23.489 12.9243L28.5032 15.7599C29.9704 16.9182 29.3524 17.3923 28.2383 18.2256" fill="url(#paint3_linear_19605_31224)"/>
      <path d="M46.5254 22.6604C45.152 22.6604 43.9715 22.3568 42.9895 21.7557C42.0132 21.1545 41.2574 20.3159 40.7224 19.257C40.1985 18.1868 39.9336 16.9565 39.9336 15.5666C39.9336 14.1711 40.2038 12.9354 40.7389 11.865C41.274 10.7898 42.0353 9.95117 43.0116 9.35533C43.9989 8.75417 45.1629 8.45093 46.5032 8.45093C47.6176 8.45093 48.6049 8.65477 49.4656 9.06861C50.3317 9.47685 51.021 10.0503 51.534 10.8007C52.0471 11.5399 52.3396 12.4059 52.4112 13.3988H49.3111C49.1842 12.7369 48.8863 12.1853 48.4176 11.7384C47.9542 11.2915 47.3309 11.0653 46.5475 11.0653C45.8856 11.0653 45.3009 11.2417 44.7989 11.6004C44.2967 11.9535 43.9051 12.4611 43.624 13.123C43.3481 13.7847 43.2102 14.579 43.2102 15.5058C43.2102 16.4438 43.3482 17.2491 43.624 17.9275C43.8998 18.595 44.2859 19.1133 44.7768 19.4776C45.2788 19.836 45.8634 20.0124 46.5419 20.0124C47.0218 20.0124 47.4466 19.9242 47.8218 19.7422C48.2012 19.5565 48.5305 19.2823 48.7816 18.9425C49.0409 18.595 49.2117 18.1756 49.3111 17.6792H52.4112C52.334 18.6555 52.047 19.516 51.5505 20.272C51.0541 21.0168 50.3812 21.6067 49.5261 22.0259C48.6822 22.4506 47.6784 22.6604 46.5254 22.6604ZM54.0716 22.3902V8.62733H57.2158V10.9219H57.3591C57.6074 10.1277 58.0376 9.5154 58.6499 9.08513C59.2623 8.64917 59.9682 8.42853 60.7516 8.42853C60.928 8.42853 61.1321 8.43973 61.3528 8.45625C61.579 8.46745 61.7666 8.48929 61.9156 8.51701V11.5012C61.7775 11.4514 61.5625 11.4128 61.259 11.3744C60.9778 11.3326 60.6939 11.3123 60.4097 11.3136C59.8195 11.3136 59.2897 11.4405 58.8154 11.6998C58.352 11.9534 57.9824 12.3009 57.7122 12.7478C57.442 13.1947 57.3096 13.7132 57.3096 14.2979V22.3899L54.0716 22.3902ZM68.579 22.6604C67.2001 22.6604 66.0086 22.3736 65.0045 21.7999C64.006 21.2206 63.2394 20.4041 62.7043 19.3452C62.1692 18.2806 61.899 17.0284 61.899 15.5887C61.899 14.171 62.1692 12.9298 62.7043 11.8596C63.245 10.7842 64.006 9.94557 64.9771 9.34973C65.9478 8.74857 67.0953 8.44533 68.4079 8.44533C69.2574 8.44533 70.0573 8.58318 70.8075 8.85889C71.5593 9.12651 72.2443 9.55368 72.8154 10.111C73.4 10.6794 73.8578 11.4018 74.1944 12.2788C74.531 13.1504 74.6964 14.1932 74.6964 15.3955V16.3884H63.4214V14.2044H71.5854C71.5798 13.5811 71.4473 13.0295 71.1827 12.544C70.9178 12.0531 70.5538 11.667 70.0795 11.3856C69.6161 11.1042 69.0698 10.9664 68.4522 10.9664C67.7902 10.9664 67.2056 11.1263 66.7036 11.4517C66.2093 11.7593 65.8042 12.191 65.5287 12.7038C65.2529 13.2171 65.1148 13.7852 65.1092 14.3973V16.306C65.1092 17.1057 65.2582 17.7954 65.5505 18.3691C65.843 18.9371 66.2513 19.3729 66.7752 19.6764C67.2994 19.9743 67.9171 20.1233 68.6176 20.1233C69.092 20.1233 69.5167 20.0569 69.8972 19.9245C70.278 19.7867 70.609 19.5882 70.8904 19.3233C71.1715 19.0584 71.3812 18.7331 71.5246 18.347L74.5531 18.6891C74.3599 19.4888 73.9959 20.1894 73.4608 20.7852C72.9313 21.3755 72.2473 21.8388 71.4199 22.1642C70.5978 22.5008 69.6492 22.6604 68.579 22.6604ZM80.3891 22.6716C79.5175 22.6716 78.7343 22.517 78.0338 22.2079C77.3388 21.8937 76.7925 21.4247 76.3843 20.8124C75.9816 20.1947 75.7831 19.439 75.7831 18.5343C75.7831 17.7564 75.9265 17.1166 76.2135 16.609C76.4932 16.1081 76.898 15.6881 77.3884 15.3902C77.8848 15.0866 78.442 14.8551 79.0597 14.7005C79.6979 14.5387 80.3468 14.4226 81.0015 14.3531C81.6571 14.2868 82.3117 14.2114 82.9651 14.1268C83.4672 14.0551 83.8312 13.9448 84.0574 13.8068C84.289 13.6581 84.4049 13.4262 84.4049 13.1174V13.0622C84.4049 12.3891 84.2064 11.8652 83.8037 11.4956C83.4008 11.126 82.8274 10.9384 82.077 10.9384C81.2826 10.9384 80.654 11.1092 80.1906 11.457C79.7328 11.8045 79.4184 12.2127 79.2582 12.687L76.23 12.257C76.4672 11.4184 76.8642 10.7234 77.4105 10.1606C77.9621 9.59249 78.6293 9.16773 79.4237 8.88661C80.2181 8.5997 81.0952 8.45625 82.0548 8.45625C82.717 8.45625 83.379 8.53353 84.0353 8.68781C84.6759 8.83599 85.2849 9.09752 85.8334 9.46005C86.3797 9.81313 86.8154 10.293 87.1408 10.9054C87.4773 11.5122 87.6428 12.2788 87.6428 13.1891V22.4011H84.5261V20.5091H84.4214C84.2229 20.8897 83.9471 21.2483 83.5884 21.5846C83.2353 21.9156 82.7887 22.1804 82.2536 22.3846C81.7295 22.5722 81.1006 22.6716 80.3891 22.6716ZM81.2274 20.2882C81.8784 20.2882 82.4412 20.1611 82.9209 19.9018C83.4008 19.6372 83.7651 19.2953 84.0244 18.865C84.289 18.4346 84.4158 17.9659 84.4158 17.4582V15.8312C84.3167 15.9138 84.14 15.9908 83.8972 16.0627C83.6601 16.1344 83.3899 16.1952 83.092 16.2503C82.794 16.3055 82.4964 16.3494 82.2038 16.3937C81.9115 16.4379 81.6578 16.471 81.4428 16.4984C80.9572 16.5648 80.5269 16.6695 80.1464 16.8184C79.7658 16.9674 79.4623 17.1768 79.2417 17.4473C79.021 17.7119 78.9107 18.0485 78.9107 18.4676C78.9107 19.0635 79.1258 19.516 79.5617 19.8192C79.9974 20.1336 80.5546 20.2882 81.2274 20.2882ZM96.7666 8.62733V11.137H88.8619V8.62733H96.7666ZM90.809 5.32837H94.0526V18.2526C94.0526 18.6886 94.1189 19.0248 94.2511 19.2567C94.3891 19.4826 94.5655 19.6372 94.7862 19.7198C95.0211 19.8062 95.2697 19.8492 95.52 19.8469C95.7239 19.8469 95.9062 19.8301 96.077 19.8027C96.248 19.775 96.3805 19.7475 96.4687 19.7201L97.0147 22.2574C96.8437 22.3181 96.5955 22.3843 96.2702 22.456C95.9557 22.5276 95.564 22.5719 95.1062 22.5828C94.2953 22.6049 93.5617 22.4834 92.9107 22.2132C92.2597 21.9374 91.7468 21.5126 91.3606 20.9392C90.9857 20.3652 90.7981 19.6484 90.8037 18.7877V5.32837H90.809ZM104.406 22.6604C103.027 22.6604 101.836 22.3736 100.832 21.7999C99.8334 21.2206 99.0668 20.4041 98.5317 19.3452C97.9966 18.2806 97.7264 17.0284 97.7264 15.5887C97.7264 14.171 97.9966 12.9298 98.5317 11.8596C99.0777 10.7842 99.8334 9.94557 100.804 9.34973C101.775 8.74857 102.923 8.44533 104.235 8.44533C105.085 8.44533 105.885 8.58318 106.635 8.85889C107.387 9.12651 108.072 9.55368 108.643 10.111C109.227 10.6794 109.686 11.4018 110.022 12.2788C110.358 13.1504 110.524 14.1932 110.524 15.3955V16.3884H99.2488V14.2044H107.413C107.407 13.5811 107.275 13.0295 107.01 12.544C106.745 12.0531 106.381 11.667 105.907 11.3856C105.444 11.1042 104.897 10.9664 104.28 10.9664C103.618 10.9664 103.033 11.1263 102.537 11.4517C102.042 11.7592 101.637 12.191 101.361 12.7038C101.086 13.2171 100.948 13.7852 100.942 14.3973V16.306C100.942 17.1057 101.091 17.7954 101.384 18.3691C101.676 18.9371 102.084 19.3729 102.608 19.6764C103.132 19.9743 103.75 20.1233 104.451 20.1233C104.919 20.1233 105.35 20.0569 105.73 19.9245C106.111 19.7867 106.442 19.5882 106.723 19.3233C107.004 19.0584 107.214 18.7331 107.358 18.347L110.386 18.6891C110.193 19.4888 109.829 20.1894 109.294 20.7852C108.764 21.3755 108.08 21.8388 107.253 22.1642C106.425 22.5008 105.477 22.6604 104.406 22.6604Z" fill="#18181B"/>
    </g>
  </g>
  <defs>
    <linearGradient id="paint0_linear_19605_31224" x1="19.6703" y1="0.028" x2="26.3738" y2="18.9731" gradientUnits="userSpaceOnUse">
      <stop offset="0.057" stop-color="#6D7083"/>
      <stop offset="0.875" stop-color="#2B2C34"/>
    </linearGradient>
    <linearGradient id="paint1_linear_19605_31224" x1="11.6749" y1="3.00101" x2="11.6749" y2="15.1413" gradientUnits="userSpaceOnUse">
      <stop stop-color="#888B9E"/>
      <stop offset="1" stop-color="#32333E"/>
    </linearGradient>
    <linearGradient id="paint2_linear_19605_31224" x1="9.61441" y1="9.86024" x2="9.61441" y2="27.9978" gradientUnits="userSpaceOnUse">
      <stop stop-color="#888B9E"/>
      <stop offset="0.578" stop-color="#32333E"/>
    </linearGradient>
    <linearGradient id="paint3_linear_19605_31224" x1="3.37741" y1="24.3662" x2="36.9164" y2="12.1174" gradientUnits="userSpaceOnUse">
      <stop offset="0.307" stop-color="#888B9E"/>
      <stop offset="0.413" stop-color="#6D7083"/>
      <stop offset="0.705" stop-color="#37394E"/>
      <stop offset="1" stop-color="#32333E"/>
    </linearGradient>
    <clipPath id="clip0_19605_31224">
      <rect width="111" height="28" fill="white"/>
    </clipPath>
  </defs>
</svg>
