<svg width="112" height="21" viewBox="0 0 112 21" fill="none" xmlns="http://www.w3.org/2000/svg">
<path d="M0.884636 14.8721C-0.00718201 12.8072 1.95623 10.8382 4.04577 11.6709C5.3065 12.1734 6.45291 12.9104 7.41784 13.8389C8.38274 14.7674 9.14855 15.8699 9.67077 17.083C10.193 18.2962 10.4618 19.597 10.4618 20.9102H10.0692C5.95405 20.9102 2.41909 18.424 0.884636 14.8721ZM10.4618 10.0908C10.4618 10.3136 10.5524 10.527 10.7128 10.6816C10.8656 10.8289 11.0699 10.9111 11.2821 10.9111H16.9188C19.0915 10.9111 20.9213 12.7416 20.0624 14.7373C19.5401 15.9505 18.7744 17.0529 17.8094 17.9814C16.8445 18.9099 15.6991 19.6469 14.4383 20.1494C13.1777 20.6519 11.8263 20.9101 10.4618 20.9102V11.7256C10.4618 11.5042 10.3712 11.2923 10.2118 11.1387C10.0599 10.9923 9.85735 10.9102 9.64635 10.9102H4.00475C1.83161 10.91 0.00194411 9.0791 0.861199 7.08301C1.38345 5.86992 2.14922 4.76734 3.11413 3.83887C4.07904 2.91051 5.22458 2.17336 6.48522 1.6709C7.74582 1.16852 9.09734 0.910202 10.4618 0.910156V10.0908ZM45.8124 6.43848C46.7032 6.43848 47.505 6.66491 48.2176 7.11719C48.9439 7.5694 49.5126 8.17897 49.9237 8.94629C50.3349 9.7138 50.5409 10.5777 50.5409 11.5371C50.5409 12.4964 50.3348 13.3595 49.9237 14.127C49.5125 14.8945 48.944 15.5047 48.2176 15.957C47.505 16.3956 46.7032 16.6152 45.8124 16.6152C45.0723 16.6152 44.4008 16.4636 43.7977 16.1621C43.2844 15.8875 42.8599 15.5246 42.5233 15.0732V20.5H40.6727V6.64355H42.5233V7.98633C42.8711 7.5336 43.3025 7.17497 43.8182 6.91113C44.4213 6.59593 45.086 6.43848 45.8124 6.43848ZM57.7782 6.43848C58.6689 6.43852 59.4708 6.66495 60.1835 7.11719C60.9096 7.56941 61.4784 8.17899 61.8895 8.94629C62.3007 9.7138 62.5067 10.5777 62.5067 11.5371C62.5067 12.4963 62.3006 13.3596 61.8895 14.127C61.4784 14.8944 60.9098 15.5048 60.1835 15.957C59.4708 16.3956 58.6689 16.6152 57.7782 16.6152C57.0381 16.6152 56.3666 16.4636 55.7635 16.1621C55.2498 15.8873 54.8248 15.5241 54.4882 15.0723V20.5H52.6385V6.64355H54.4882V7.98633C54.836 7.53343 55.2682 7.17504 55.7841 6.91113C56.387 6.596 57.0519 6.43848 57.7782 6.43848ZM32.8602 6.43848C33.6002 6.43852 34.2583 6.59594 34.8339 6.91113C35.347 7.1737 35.7718 7.52989 36.1083 7.97949V6.64355H37.9794V16.4092H36.1083V15.0791C35.7828 15.5276 35.3652 15.8888 34.8544 16.1621C34.2788 16.4636 33.6139 16.6152 32.8602 16.6152C31.9695 16.6152 31.1607 16.3955 30.4344 15.957C29.708 15.5047 29.1318 14.8945 28.7069 14.127C28.2959 13.3596 28.0907 12.4963 28.0907 11.5371C28.0907 10.5777 28.2957 9.7138 28.7069 8.94629C29.1318 8.1788 29.7013 7.56946 30.4139 7.11719C31.1403 6.66496 31.9557 6.43848 32.8602 6.43848ZM65.826 13.9219C66.2098 13.9219 66.5256 14.0521 66.7723 14.3125C67.0326 14.5591 67.1629 14.8742 67.163 15.2578C67.163 15.6279 67.0327 15.9505 66.7723 16.2246C66.5257 16.4849 66.2097 16.6152 65.826 16.6152C65.4426 16.6151 65.1205 16.4848 64.8602 16.2246C64.6135 15.9505 64.4901 15.6279 64.4901 15.2578C64.4901 14.8742 64.6136 14.5592 64.8602 14.3125C65.1205 14.0522 65.4425 13.922 65.826 13.9219ZM72.0155 7.98633C72.3633 7.53358 72.7947 7.17498 73.3104 6.91113C73.9134 6.59592 74.5782 6.4385 75.3046 6.43848C76.1954 6.43848 76.9971 6.6649 77.7098 7.11719C78.4361 7.5694 79.0047 8.17896 79.4159 8.94629C79.8271 9.7138 80.0331 10.5777 80.0331 11.5371C80.033 12.4964 79.827 13.3595 79.4159 14.127C79.0047 14.8945 78.4362 15.5047 77.7098 15.957C76.9972 16.3955 76.1953 16.6152 75.3046 16.6152C74.5645 16.6152 73.8929 16.4636 73.2899 16.1621C72.7766 15.8875 72.352 15.5246 72.0155 15.0732V16.4092H70.1649V1.73047H72.0155V7.98633ZM83.7342 12.2363C83.7343 12.7706 83.8237 13.2364 84.0018 13.6338C84.1937 14.0175 84.4678 14.312 84.8241 14.5176C85.1804 14.7231 85.5983 14.8262 86.078 14.8262C86.8043 14.8262 87.3729 14.5997 87.7841 14.1475C88.1951 13.6816 88.4012 13.0447 88.4012 12.2363V6.64355H90.2508V12.3184C90.2508 13.1679 90.0729 13.9146 89.7167 14.5586C89.3603 15.2028 88.8667 15.71 88.2362 16.0801C87.6195 16.4363 86.8934 16.6152 86.0575 16.6152C85.2626 16.6152 84.5425 16.4364 83.8983 16.0801C83.268 15.71 82.7751 15.2026 82.4188 14.5586C82.0626 13.9145 81.8837 13.1679 81.8837 12.3184V6.64355H83.7342V12.2363ZM111.158 16.4092H109.287V15.0732C108.95 15.5246 108.526 15.8875 108.013 16.1621C107.423 16.4636 106.758 16.6152 106.018 16.6152C105.114 16.6152 104.305 16.3955 103.593 15.957C102.88 15.5047 102.31 14.8945 101.886 14.127C101.475 13.3596 101.269 12.4963 101.269 11.5371C101.269 10.5777 101.474 9.7138 101.886 8.94629C102.31 8.17879 102.88 7.56947 103.593 7.11719C104.305 6.66494 105.114 6.43848 106.018 6.43848C106.745 6.43851 107.403 6.59594 107.992 6.91113C108.516 7.17914 108.947 7.54493 109.287 8.00781V1.73047H111.158V16.4092ZM94.6014 16.4092H92.7518V6.64355H94.6014V16.4092ZM99.1786 16.4092H97.329V1.73047H99.1786V16.4092ZM33.1473 8.18555C32.5308 8.18561 31.9824 8.32944 31.5028 8.61719C31.037 8.90491 30.6675 9.30272 30.3934 9.80957C30.133 10.303 30.0028 10.8724 30.0028 11.5166C30.0028 12.1743 30.1331 12.7566 30.3934 13.2637C30.6675 13.7569 31.0438 14.1478 31.5233 14.4355C32.0029 14.7233 32.5513 14.8671 33.1678 14.8672C34.086 14.8672 34.8266 14.559 35.3885 13.9424C35.9504 13.312 36.2313 12.5101 36.2313 11.5371C36.2313 10.8655 36.1011 10.2825 35.8407 9.78906C35.594 9.28219 35.2381 8.89123 34.7723 8.61719C34.3063 8.32937 33.7641 8.18555 33.1473 8.18555ZM45.5243 8.18555C44.9077 8.18558 44.3662 8.32943 43.9003 8.61719C43.4343 8.89128 43.0708 9.28201 42.8104 9.78906C42.55 10.2962 42.4198 10.8792 42.4198 11.5371C42.4198 12.1811 42.5433 12.7567 42.7899 13.2637C43.0503 13.757 43.4138 14.1477 43.8798 14.4355C44.3594 14.7233 44.9008 14.8672 45.5038 14.8672C46.1204 14.8672 46.6619 14.7233 47.1278 14.4355C47.5938 14.1477 47.964 13.7571 48.2382 13.2637C48.5122 12.7567 48.6492 12.1743 48.6493 11.5166C48.6493 10.8724 48.5123 10.2962 48.2382 9.78906C47.9641 9.2821 47.5937 8.89125 47.1278 8.61719C46.6619 8.32952 46.1272 8.18555 45.5243 8.18555ZM57.4901 8.18555C56.8735 8.18555 56.332 8.32947 55.8661 8.61719C55.4002 8.89126 55.0366 9.28205 54.7762 9.78906C54.5158 10.2962 54.3856 10.8792 54.3856 11.5371C54.3856 12.1811 54.5091 12.7567 54.7557 13.2637C55.0161 13.7571 55.3796 14.1477 55.8456 14.4355C56.3252 14.7233 56.8666 14.8672 57.4696 14.8672C58.0863 14.8672 58.6276 14.7234 59.0936 14.4355C59.5596 14.1477 59.9299 13.7571 60.204 13.2637C60.478 12.7567 60.6151 12.1743 60.6151 11.5166C60.6151 10.8724 60.4781 10.2962 60.204 9.78906C59.9299 9.28205 59.5596 8.89126 59.0936 8.61719C58.6277 8.32945 58.0931 8.18555 57.4901 8.18555ZM75.0165 8.18555C74.3999 8.18561 73.8583 8.32943 73.3924 8.61719C72.9266 8.89122 72.564 9.28219 72.3036 9.78906C72.0432 10.2962 71.913 10.8792 71.913 11.5371C71.913 12.1812 72.0364 12.7566 72.2831 13.2637C72.5434 13.7569 72.9061 14.1478 73.3719 14.4355C73.8515 14.7233 74.3931 14.8671 74.996 14.8672C75.6126 14.8672 76.1541 14.7232 76.62 14.4355C77.086 14.1477 77.4562 13.7571 77.7303 13.2637C78.0044 12.7566 78.1414 12.1743 78.1415 11.5166C78.1415 10.8724 78.0045 10.2962 77.7303 9.78906C77.4562 9.28213 77.0859 8.89123 76.62 8.61719C76.1541 8.32957 75.6193 8.18555 75.0165 8.18555ZM106.306 8.18555C105.689 8.18562 105.147 8.32944 104.682 8.61719C104.216 8.90491 103.846 9.30272 103.572 9.80957C103.312 10.303 103.182 10.8724 103.182 11.5166C103.182 12.1743 103.312 12.7566 103.572 13.2637C103.846 13.7569 104.216 14.1478 104.682 14.4355C105.161 14.7234 105.71 14.8672 106.327 14.8672C106.944 14.8671 107.478 14.7233 107.931 14.4355C108.396 14.1478 108.759 13.7569 109.019 13.2637C109.28 12.7566 109.41 12.1812 109.41 11.5371C109.41 10.8655 109.273 10.2825 108.999 9.78906C108.739 9.2959 108.376 8.90492 107.91 8.61719C107.458 8.32937 106.922 8.18555 106.306 8.18555ZM10.8544 0.910156C14.9694 0.910292 18.5045 3.39638 20.0389 6.94824C20.9306 9.01303 18.9672 10.9819 16.8778 10.1494C15.617 9.64691 14.4707 8.90993 13.5057 7.98145C12.5408 7.05292 11.775 5.95047 11.2528 4.7373C10.7305 3.52407 10.4618 2.22335 10.4618 0.910156H10.8544ZM93.6766 2.32715C94.0191 2.32715 94.3002 2.44303 94.5194 2.67578C94.7387 2.89507 94.8485 3.17009 94.8485 3.49902C94.8484 3.84145 94.7386 4.12942 94.5194 4.3623C94.3002 4.58141 94.0191 4.69141 93.6766 4.69141C93.3341 4.69138 93.0531 4.58147 92.8339 4.3623C92.6147 4.12942 92.5049 3.84145 92.5048 3.49902C92.5048 3.17009 92.6146 2.89507 92.8339 2.67578C93.0531 2.44297 93.3342 2.32718 93.6766 2.32715Z" fill="#18181B"/>
</svg>
