<svg xmlns="http://www.w3.org/2000/svg" width="112" height="26" viewBox="0 0 112 26" fill="none">
  <g clip-path="url(#clip0_19605_31201)">
    <path d="M10.701 8.40793H1.60592C0.710313 8.40793 0 7.69462 0 6.82955V1.57838C0 0.698131 0.725755 0 1.60592 0H9.09508C9.99069 0 10.701 0.713307 10.701 1.57838V8.40793Z" fill="#18181B"/>
    <path d="M20.4557 17.5668H10.7109V8.39453H20.4557C21.3987 8.39453 22.1763 9.17128 22.1763 10.1133V15.8481C22.1763 16.8066 21.3987 17.5668 20.4557 17.5668Z" fill="#18181B"/>
    <path d="M9.09508 25.9998H1.60592C0.725755 25.9998 0 25.2878 0 24.4242V19.1674C0 18.3039 0.725755 17.5918 1.60592 17.5918H10.701V24.4242C10.701 25.2878 9.97525 25.9998 9.09508 25.9998Z" fill="#18181B"/>
    <path d="M40.3351 7.73256L39.5949 8.42389H38.8548L38.6245 7.5482C38.5751 7.33312 38.3613 7.19485 38.1146 7.19485H33.3775C33.0814 7.19485 32.8512 7.40993 32.8512 7.65574V9.17668C32.8512 9.43785 33.0814 9.63757 33.3775 9.63757H36.1737V16.766H32.917C32.6209 16.766 32.3906 16.9811 32.3906 17.2269V18.7479C32.3906 19.009 32.6209 19.2087 32.917 19.2087H43.1642C43.4603 19.2087 43.6905 18.9937 43.6905 18.7479V17.2269C43.6905 16.9657 43.4603 16.766 43.1642 16.766H39.3976V11.727C39.3976 10.3136 40.2858 9.57612 42.0293 9.57612H44.8584C45.1544 9.57612 45.3847 9.36104 45.3847 9.11523V7.44066C45.3847 7.17949 45.1544 6.97977 44.8584 6.97977H43.1806C41.947 6.96441 40.9766 7.17949 40.3351 7.73256Z" fill="#18181B"/>
    <path d="M52.4942 6.97925C48.3595 6.97925 46.1445 9.12095 46.1445 13.4683C46.1445 17.8316 48.3431 19.9733 52.4122 19.9733C55.5624 19.9733 57.597 18.6947 58.1384 16.505C58.2204 16.2013 57.9579 15.9137 57.6298 15.9137H55.6609C55.4476 15.9137 55.2507 16.0415 55.1687 16.2333C54.8241 17.1763 53.8396 17.6238 52.5106 17.6238C50.4433 17.6238 49.4588 16.521 49.3276 13.9478H58.3025C58.7947 9.13694 56.7438 6.97925 52.4942 6.97925ZM49.426 11.9978C49.7378 10.1119 50.7058 9.23283 52.4778 9.23283C54.3647 9.23283 55.2507 10.2078 55.2999 11.9978H49.426Z" fill="#18181B"/>
    <path d="M67.9398 6.97925C66.8718 6.97925 66.1022 7.20876 65.5054 7.7596L64.7672 8.44815H64.0918L63.8405 7.56069C63.7777 7.36177 63.5892 7.20876 63.3536 7.20876H61.9401C61.6574 7.20876 61.4375 7.42298 61.4375 7.66779V23.3361C61.4375 23.5962 61.6574 23.7951 61.9401 23.7951H64.0133C64.296 23.7951 64.5159 23.5809 64.5159 23.3361V19.9392L64.2489 18.1184L64.9399 17.9654L65.6781 18.6539C66.2592 19.1742 66.966 19.4343 68.0183 19.4343C71.0653 19.4343 72.9029 17.3839 72.9029 13.2068C72.8872 9.02959 71.0653 6.97925 67.9398 6.97925ZM66.9189 16.9249C65.364 16.9249 64.5002 16.1446 64.5002 14.6604V11.7226C64.5002 10.2384 65.3483 9.45802 66.9189 9.45802C68.8193 9.45802 69.6831 10.6209 69.6831 13.1762C69.6674 15.762 68.8193 16.9249 66.9189 16.9249Z" fill="#18181B"/>
    <path d="M111.119 8.77667V7.19391C111.119 6.92212 110.895 6.71428 110.607 6.71428H105.054V3.64467C105.054 3.37288 104.83 3.16504 104.542 3.16504H102.43C102.142 3.16504 101.918 3.38887 101.918 3.64467V6.71428H98.6371C98.349 6.71428 98.125 6.9381 98.125 7.19391V8.77667C98.125 9.04846 98.349 9.2563 98.6371 9.2563H101.918V13.9567C101.918 17.5539 103.614 19.2166 107.262 19.2166H110.239C110.527 19.2166 110.751 18.9927 110.751 18.7369V17.1542C110.751 16.8824 110.527 16.6745 110.239 16.6745H107.743C105.758 16.6745 105.054 15.8912 105.054 13.9407V9.27229H110.607C110.895 9.2563 111.119 9.03247 111.119 8.77667Z" fill="#18181B"/>
    <path d="M85.3996 16.7507H82.1912V2.86675C82.1912 2.60303 81.971 2.40137 81.6879 2.40137H75.3969C75.1138 2.40137 74.8936 2.61854 74.8936 2.86675V4.40251C74.8936 4.66623 75.1138 4.8679 75.3969 4.8679H79.1086V16.7507H74.9408C74.6577 16.7507 74.4375 16.9678 74.4375 17.2161V18.7518C74.4375 19.0155 74.6577 19.2172 74.9408 19.2172H85.3996C85.6827 19.2172 85.9029 19 85.9029 18.7518V17.2161C85.9029 16.9523 85.6827 16.7507 85.3996 16.7507Z" fill="#18181B"/>
    <path d="M94.4697 2.20508H91.6232C91.3386 2.20508 91.1172 2.42647 91.1172 2.67948V4.6878C91.1172 4.95663 91.3386 5.16221 91.6232 5.16221H94.4697C94.7543 5.16221 94.9757 4.94082 94.9757 4.6878V2.67948C94.9599 2.41065 94.7385 2.20508 94.4697 2.20508Z" fill="#18181B"/>
    <path d="M94.8536 16.831V7.45365C94.8536 7.18482 94.6322 6.97925 94.3475 6.97925H87.9747C87.69 6.97925 87.4688 7.20064 87.4688 7.45365V9.01919C87.4688 9.28802 87.69 9.49359 87.9747 9.49359H91.7542V16.831H87.9747C87.69 16.831 87.4688 17.0524 87.4688 17.3055V18.871C87.4688 19.1398 87.69 19.3454 87.9747 19.3454H98.7279C99.0125 19.3454 99.2339 19.124 99.2339 18.871V17.3055C99.2339 17.0366 99.0125 16.831 98.7279 16.831H94.8536Z" fill="#18181B"/>
  </g>
  <defs>
    <clipPath id="clip0_19605_31201">
      <rect width="112" height="26" fill="white"/>
    </clipPath>
  </defs>
</svg>
