<svg xmlns="http://www.w3.org/2000/svg" width="32" height="32" viewBox="0 0 32 32" fill="none">
  <g clip-path="url(#clip0_19603_30712)">
    <path d="M19.5617 6.51374C20.0865 5.90849 19.912 5.41126 19.1739 5.40963L1.34208 5.34083C0.603947 5.33779 0 6.03996 0 6.90007V19.7621C0 20.6222 0.603947 21.3243 1.34208 21.3227L14.6283 21.2899C15.3665 21.2883 15.9731 20.5831 15.9758 19.723L15.9825 17.5337C15.9852 16.6736 15.384 15.973 14.6458 15.9762L6.44188 16.0122C5.70375 16.0153 4.97899 16.0247 4.83136 16.0341C4.68373 16.0435 4.56299 15.346 4.56299 14.4859V12.2966C4.56299 11.4365 5.16693 10.7281 5.90507 10.7234L14.6283 10.6624C15.3665 10.6578 16.3999 10.1589 16.9247 9.55374L19.5617 6.51529V6.51374Z" fill="#18181B"/>
    <path d="M19.5617 6.51374C20.0865 5.90849 19.912 5.41126 19.1739 5.40963L1.34208 5.34083C0.603947 5.33779 0 6.03996 0 6.90007V19.7621C0 20.6222 0.603947 21.3243 1.34208 21.3227L14.6283 21.2899C15.3665 21.2883 15.9731 20.5831 15.9758 19.723L15.9825 17.5337C15.9852 16.6736 15.384 15.973 14.6458 15.9762L6.44188 16.0122C5.70375 16.0153 4.97899 16.0247 4.83136 16.0341C4.68373 16.0435 4.56299 15.346 4.56299 14.4859V12.2966C4.56299 11.4365 5.16693 10.7281 5.90507 10.7234L14.6283 10.6624C15.3665 10.6578 16.3999 10.1589 16.9247 9.55374L19.5617 6.51529V6.51374Z" fill="#18181B"/>
    <path d="M12.4221 25.433C11.8974 26.0382 12.0718 26.5355 12.8099 26.5371L30.6417 26.6059C31.3799 26.6091 31.9838 25.9069 31.9838 25.0468V12.1847C31.9838 11.3246 31.3799 10.6224 30.6417 10.624L17.3555 10.6568C16.6174 10.6584 16.0107 11.3637 16.008 12.2237L16.0013 14.413C15.9986 15.2731 16.5999 15.9737 17.338 15.9706L25.542 15.9346C26.2801 15.9315 27.0048 15.9221 27.1525 15.9127C27.3001 15.9033 27.4208 16.6007 27.4208 17.4609V19.6501C27.4208 20.5103 26.8169 21.2186 26.0788 21.2234L17.3555 21.2843C16.6174 21.289 15.584 21.7879 15.0592 22.393L12.4221 25.4315V25.433Z" fill="#18181B"/>
    <path d="M12.4223 25.4331C11.8975 26.0382 12.072 26.5356 12.8101 26.5371L30.6419 26.6059C31.3801 26.6091 31.984 25.9069 31.984 25.0468V12.1847C31.984 11.3246 31.3801 10.6224 30.6419 10.6241L17.3557 10.6568C16.6175 10.6585 16.0109 11.3637 16.0082 12.2238L16.0015 14.4131C15.9988 15.2732 16.6 15.9737 17.3382 15.9706L25.5422 15.9347C26.2803 15.9315 27.005 15.9222 27.1526 15.9128C27.3003 15.9034 27.421 16.6008 27.421 17.4609V19.6502C27.421 20.5103 26.8171 21.2187 26.079 21.2234L17.3557 21.2844C16.6175 21.289 15.5841 21.7879 15.0594 22.3931L12.4223 25.4315V25.4331ZM21.2713 5.26919C20.4832 5.26446 20.2969 4.76341 20.8572 4.15569L23.673 1.10404C24.2333 0.496388 25.3367 0 26.1248 0H30.567C31.3552 0 32 0.706755 32 1.57054V3.76929C32 4.63308 31.3552 5.3351 30.567 5.33044L21.2713 5.26919ZM10.7287 26.6863C11.5168 26.691 11.7031 27.192 11.1428 27.7998L8.32704 30.8513C7.76668 31.4592 6.66332 31.9554 5.87513 31.9554H1.43303C0.644836 31.9554 0 31.2487 0 30.3849V28.1861C0 27.3223 0.644835 26.6203 1.43296 26.625L10.7287 26.6863Z" fill="#18181B"/>
  </g>
  <defs>
    <clipPath id="clip0_19603_30712">
      <rect width="32" height="32" fill="white"/>
    </clipPath>
  </defs>
</svg>
