<svg xmlns="http://www.w3.org/2000/svg" width="56" height="32" viewBox="0 0 56 32" fill="none">
  <g clip-path="url(#clip0_19603_30718)">
    <path d="M32.6301 1.99902H45.9553C48.5501 1.99902 51.0387 3.02981 52.8735 4.86463C54.7083 6.69944 55.7391 9.18798 55.7391 11.7828V24.4912H50.2646V11.7828C50.2646 11.6523 50.2595 11.5231 50.2492 11.3954L36.924 24.4884L37.0583 24.4912H50.2646V29.6593H37.0611C31.6566 29.6593 27.157 25.2367 27.157 19.8336V7.15876H32.6301V19.8336C32.6301 20.0779 32.6487 20.3185 32.686 20.5553L46.3036 7.17414C46.1873 7.16462 46.0706 7.15996 45.9539 7.16016H32.6301V1.99902ZM19.1706 28.7082L-0.0878906 7.15736H7.6608L18.9663 19.8098V7.15736H24.7429V26.5809C24.7429 29.5125 21.1231 30.893 19.1706 28.7068" fill="#18181B"/>
  </g>
  <defs>
    <clipPath id="clip0_19603_30718">
      <rect width="56" height="32" fill="white"/>
    </clipPath>
  </defs>
</svg>
